# xmcd
#
# Track frame offsets: 
#        150
#        15135
#        27510
#        41402
#        59594
#        75683
#        89593
#        101907
#        115794
#        133415
#        153735
#        166274
#        186002
#
# Disc length: 2734 seconds
#
# Revision: 0
# Processed by: cddbd v1.5.2PL0 Copyright (c) Steve Scherf et al.
# Submitted via: ExactAudioCopy v0.99pb4
#
DISCID=aa0aac0d
DTITLE=Melinda Doolittle - Coming Back To You
DYEAR=2009
DGENRE=R&B
TTITLE0=Fundamental Things
TTITLE1=It's Your Love
TTITLE2=Coming Back To You
TTITLE3=Declaration Of Love
TTITLE4=The Best Of Everything
TTITLE5=Wonderful
TTITLE6=Dust My Broom
TTITLE7=I'll Never Stop Loving You
TTITLE8=I Will Be
TTITLE9=If I'm Not In Love
TTITLE10=Walkin' Blues
TTITLE11=We Will Find A Way
TTITLE12=Wonder Why
EXTD=
EXTT0=
EXTT1=
EXTT2=
EXTT3=
EXTT4=
EXTT5=
EXTT6=
EXTT7=
EXTT8=
EXTT9=
EXTT10=
EXTT11=
EXTT12=
PLAYORDER=
